<svg xmlns="http://www.w3.org/2000/svg" viewBox="0 0 220 140" width="220" height="140">
  <!-- exhaust pipe -->
  <rect x="57" y="22" width="5" height="22" rx="1.5" fill="#71717a" />
  <!-- cab (windshield slope + hood) -->
  <path d="M15 60 L15 90 L62 90 L62 45 L42 45 L15 60 Z" fill="#71717a" />
  <!-- cab window cutout -->
  <path d="M22 58 L38 48 L52 48 L52 60 L22 60 Z" fill="#ffffff" fill-opacity="0.45" />
  <!-- hopper / rear body -->
  <rect x="62" y="20" width="130" height="70" rx="5" fill="#71717a" />
  <!-- hopper ridge lines -->
  <rect x="70" y="30" width="114" height="3.5" rx="1.5" fill="#ffffff" fill-opacity="0.3" />
  <rect x="70" y="40" width="114" height="3.5" rx="1.5" fill="#ffffff" fill-opacity="0.3" />
  <rect x="70" y="50" width="114" height="3.5" rx="1.5" fill="#ffffff" fill-opacity="0.3" />
  <!-- rear hatch line -->
  <rect x="184" y="24" width="4" height="62" fill="#ffffff" fill-opacity="0.3" />
  <!-- bumper -->
  <rect x="12" y="88" width="184" height="5" rx="2" fill="#71717a" />
  <!-- wheels -->
  <circle cx="42" cy="94" r="15" fill="#71717a" />
  <circle cx="42" cy="94" r="6" fill="#ffffff" fill-opacity="0.55" />
  <circle cx="160" cy="94" r="15" fill="#71717a" />
  <circle cx="160" cy="94" r="6" fill="#ffffff" fill-opacity="0.55" />
</svg>
